<svg width="298" height="89" viewBox="0 0 298 89" fill="none" xmlns="http://www.w3.org/2000/svg">
<path d="M99.7525 42.1251C104.899 42.1251 108.698 37.6902 108.698 33.8113C108.698 30.484 106.087 27.7127 102.128 27.7127C97.2971 27.7127 93.2581 31.9875 93.2581 36.1066C93.2581 39.4339 95.7936 42.1251 99.7525 42.1251Z" fill="white"/>
<path d="M136.571 46.1641C131.869 46.1641 126.482 49.2068 122.892 55.3721L125.806 47.1116H114.089L106.483 68.6057C103.004 73.5343 99.1163 76.964 96.6697 76.964C95.0862 76.964 94.1342 75.8563 94.1342 74.1927C94.1342 71.5015 96.7454 62.6316 103.16 47.1116H90.4911C89.8505 48.842 89.2545 50.4834 88.694 52.0403C81.2787 71.8974 76.4657 78.3073 69.2728 78.3073L65.0781 87.6487C72.5245 87.6487 77.3064 84.7173 81.8036 78.8678C82.0171 84.3392 84.9396 87.6487 90.8114 87.6487C95.2596 87.6487 98.8672 85.0821 102.292 80.4381L100.077 86.6968H112.19C114.961 77.7513 122.483 56.6087 129.609 56.6087C132.776 56.6087 132.936 60.3319 132.065 62.7073L123.275 86.6968H135.783L144.333 61.2794C146.628 54.4691 144.493 46.1552 136.575 46.1552L136.571 46.1641Z" fill="white"/>
<path d="M126.406 21.2583H131.259V3.78548H138.804V0H119.191V3.78548H126.406V21.2583Z" fill="white"/>
<path d="M150.872 12.7043H162.317V21.2583H167.041V0H162.317V8.55847H150.872V0H146.086V21.2583H150.872V12.7043Z" fill="white"/>
<path d="M194.95 17.415H180.391V12.4062H192.197V8.70527H180.391V3.69651H194.327V0H175.769V21.2583H194.95V17.415Z" fill="white"/>
<path d="M73.3164 27.7661C68.8014 46.5333 56.6888 76.6214 47.0271 76.6214C44.9676 76.6214 43.94 75.3537 43.94 72.6625C43.94 67.0399 48.5306 52.5519 56.9245 32.201L41.5646 36.3201C36.6982 47.7744 33.411 58.0188 31.9653 66.5283C27.7839 73.8591 23.8828 76.6214 21.2983 76.6214C19.2388 76.6214 18.1311 75.3537 18.1311 72.7426C18.1311 67.676 21.6942 55.7991 27.8684 40.0433L0 47.552V53.6684L10.1198 53.7395C7.03272 62.5204 5.30234 69.8111 5.30234 75.7496C5.30234 84.2235 8.62964 88.1024 15.3599 88.1024C20.0661 88.1024 25.453 85.5714 31.2046 77.2264C31.8674 83.672 36.3112 88.1024 43.3084 88.1024C61.4395 88.1024 79.5707 65.1405 87.8845 23.8071L73.3164 27.7661Z" fill="white"/>
<path d="M293.395 71.8885C287.456 76.3234 282.074 78.1428 277.399 78.1428C272.724 78.1428 270.41 76.4791 269.57 73.0095C270.953 73.2541 272.559 73.392 274.071 73.392C284.761 73.392 293.47 66.6618 293.47 58.0321C293.47 51.0661 287.692 46.1552 279.774 46.1552C267.63 46.1552 257.608 57.5473 257.528 71.3325C254.552 75.4471 251.665 76.964 249.766 76.964C248.498 76.964 247.867 76.1722 247.867 75.1446C247.867 71.3458 255.785 61.9199 255.624 54.2422C255.544 49.4114 251.826 46.1641 246.915 46.1641C242.004 46.1641 237.022 49.1578 233.525 55.2208L236.386 47.1161H224.669L220.43 59.0953C218.103 62.2891 215.946 63.37 213.29 63.1521C213.326 62.5605 213.348 61.9644 213.348 61.3639C213.348 51.5465 208.041 46.004 199.572 46.004C187.339 46.004 177.82 57.7964 176.463 70.0914C173.545 74.7487 170.996 76.7193 164.657 76.7193H156.659L182.312 48.2148V47.1072H151.593L148.265 57.0846H161.73L141.615 79.415L142.803 86.7012H162.042C168.741 86.7012 173.358 83.4584 176.734 77.3732C176.748 77.4266 176.752 77.48 176.765 77.5333C178.22 83.8143 182.926 87.6576 190.141 87.6576C199.051 87.6576 207.249 81.608 211.075 72.6269C211.124 72.5157 211.164 72.4 211.213 72.2888C213.504 71.8618 215.403 70.6563 217.071 68.5834L210.652 86.7146H222.765C226.092 76.4213 233.058 56.6265 240.5 56.6265C242.164 56.6265 242.876 57.5784 242.876 58.8417C242.876 62.9608 235.589 71.9063 235.589 79.2682C235.589 84.099 238.992 87.6621 244.139 87.6621C249.286 87.6621 254.245 83.6186 258.591 77.6579C260.971 83.9211 267.185 87.6576 275.811 87.6576C283.253 87.6576 291.251 84.8863 297.029 80.4514L293.386 71.9018L293.395 71.8885ZM278.982 55.5011C280.962 55.5011 282.465 56.6887 282.465 58.5882C282.465 62.8896 276.358 66.3548 269.663 66.0657C270.931 60.1717 274.872 55.5011 278.978 55.5011H278.982ZM191.649 77.431C189.354 77.431 188.086 75.6117 188.086 72.1242C188.086 64.2864 193.313 55.6567 197.984 55.7324C200.279 55.7324 201.547 57.5517 201.547 61.0392C201.547 68.7969 196.32 77.431 191.649 77.431Z" fill="white"/>
</svg>
